<svg width="571" height="571" viewBox="0 0 571 571" fill="none" xmlns="http://www.w3.org/2000/svg">
<rect x="8" y="8" width="555" height="555" rx="40" fill="white" stroke="#FB5D04" stroke-width="15" stroke-linejoin="round"/>
<path d="M132 271.089V327.717C132 329.926 133.791 331.717 136 331.717H182.104C184.313 331.717 186.104 329.926 186.104 327.717V207.177C186.104 203.295 181.13 201.688 178.859 204.837L132.756 268.748C132.264 269.43 132 270.248 132 271.089Z" fill="#FB5D04"/>
<path d="M206.595 57H159.768C156.561 57 154.658 60.5862 156.456 63.2425L282.137 248.885C283.703 251.197 287.095 251.235 288.711 248.958L379.386 121.23C380.026 120.328 381.063 119.792 382.168 119.792C384.053 119.792 385.581 121.32 385.581 123.205V328.589C385.581 330.798 387.372 332.589 389.581 332.589H434.743C436.953 332.589 438.743 330.798 438.743 328.589V61C438.743 58.7909 436.953 57 434.743 57H366.465C365.175 57 363.964 57.6219 363.213 58.6704L288.673 162.715C287.063 164.962 283.714 164.938 282.137 162.669L209.879 58.717C209.132 57.6414 207.905 57 206.595 57Z" fill="#FB5D04"/>
<rect x="87" y="360.956" width="397.295" height="93.3253" rx="4" fill="white" stroke="#FB5D04" stroke-width="5"/>
<path d="M184.202 423.71C180.558 423.71 177.386 422.976 174.688 421.509C171.99 419.994 169.908 417.864 168.44 415.119C166.973 412.374 166.239 409.155 166.239 405.463C166.239 402.67 166.642 400.185 167.446 398.008C168.298 395.783 169.505 393.914 171.067 392.399C172.629 390.837 174.523 389.654 176.747 388.849C178.972 387.997 181.457 387.571 184.202 387.571C185.764 387.571 187.445 387.784 189.243 388.21C191.089 388.636 192.817 389.346 194.426 390.34C195.184 390.813 195.681 391.381 195.917 392.044C196.154 392.707 196.201 393.393 196.059 394.103C195.917 394.766 195.61 395.357 195.136 395.878C194.71 396.351 194.166 396.659 193.503 396.801C192.841 396.896 192.107 396.73 191.302 396.304C190.261 395.689 189.196 395.239 188.107 394.955C187.019 394.624 185.977 394.458 184.983 394.458C183.421 394.458 182.049 394.718 180.865 395.239C179.682 395.712 178.664 396.422 177.812 397.369C177.008 398.268 176.392 399.404 175.966 400.777C175.54 402.15 175.327 403.735 175.327 405.534C175.327 409.037 176.156 411.806 177.812 413.841C179.516 415.829 181.907 416.823 184.983 416.823C185.977 416.823 186.995 416.681 188.036 416.397C189.125 416.113 190.214 415.663 191.302 415.048C192.107 414.622 192.817 414.48 193.432 414.622C194.095 414.764 194.639 415.095 195.065 415.616C195.491 416.089 195.752 416.681 195.846 417.391C195.941 418.054 195.846 418.716 195.562 419.379C195.326 420.042 194.852 420.586 194.142 421.012C192.58 421.959 190.924 422.645 189.172 423.071C187.421 423.497 185.764 423.71 184.202 423.71ZM213.858 423.568C212.438 423.568 211.325 423.189 210.521 422.432C209.763 421.627 209.385 420.491 209.385 419.024V395.239H200.723C198.167 395.239 196.889 394.079 196.889 391.76C196.889 390.671 197.22 389.819 197.883 389.204C198.593 388.589 199.539 388.281 200.723 388.281H226.922C229.478 388.281 230.756 389.441 230.756 391.76C230.756 392.896 230.424 393.772 229.762 394.387C229.099 394.955 228.152 395.239 226.922 395.239H218.26V419.024C218.26 420.491 217.881 421.627 217.124 422.432C216.414 423.189 215.325 423.568 213.858 423.568ZM244.852 436.348C243.81 436.348 242.958 436.064 242.296 435.496C241.633 434.975 241.231 434.265 241.089 433.366C240.994 432.467 241.16 431.52 241.586 430.526L246.414 419.805V423.497L233.492 393.606C233.066 392.565 232.924 391.594 233.066 390.695C233.208 389.796 233.634 389.086 234.344 388.565C235.101 387.997 236.119 387.713 237.397 387.713C238.485 387.713 239.361 387.973 240.024 388.494C240.686 388.967 241.278 389.89 241.799 391.263L251.384 415.19H249.254L259.052 391.192C259.572 389.867 260.188 388.967 260.898 388.494C261.608 387.973 262.554 387.713 263.738 387.713C264.779 387.713 265.607 387.997 266.223 388.565C266.838 389.086 267.217 389.796 267.359 390.695C267.501 391.547 267.335 392.494 266.862 393.535L249.609 432.94C248.993 434.265 248.331 435.165 247.621 435.638C246.911 436.111 245.988 436.348 244.852 436.348ZM273.919 432.798C272.735 432.798 271.789 432.443 271.079 431.733C270.416 431.07 270.085 430.1 270.085 428.822V420.16C270.085 417.415 271.457 416.042 274.203 416.042H278.179L272.925 417.888C274.155 416.231 275.126 414.504 275.836 412.705C276.546 410.906 277.066 408.847 277.398 406.528C277.729 404.161 277.895 401.369 277.895 398.15V393.251C277.895 391.642 278.321 390.411 279.173 389.559C280.025 388.707 281.255 388.281 282.865 388.281H299.976C301.585 388.281 302.816 388.707 303.668 389.559C304.52 390.411 304.946 391.642 304.946 393.251V420.16L300.828 416.042H306.508C307.833 416.042 308.851 416.397 309.561 417.107C310.271 417.77 310.626 418.787 310.626 420.16V428.822C310.626 431.473 309.371 432.798 306.863 432.798C305.632 432.798 304.685 432.443 304.023 431.733C303.407 431.07 303.1 430.1 303.1 428.822V423H277.611V428.822C277.611 431.473 276.38 432.798 273.919 432.798ZM282.084 416.042H296.639V395.097H285.492V400.209C285.492 403.191 285.184 406.078 284.569 408.871C284.001 411.664 283.172 414.054 282.084 416.042ZM334.351 423.71C330.423 423.71 327.038 422.976 324.198 421.509C321.358 420.042 319.157 417.959 317.595 415.261C316.081 412.563 315.323 409.368 315.323 405.676C315.323 402.079 316.057 398.931 317.524 396.233C319.039 393.535 321.098 391.429 323.701 389.914C326.352 388.352 329.358 387.571 332.718 387.571C335.18 387.571 337.381 387.973 339.321 388.778C341.309 389.583 342.99 390.742 344.362 392.257C345.782 393.772 346.847 395.618 347.557 397.795C348.315 399.925 348.693 402.339 348.693 405.037C348.693 405.889 348.386 406.552 347.77 407.025C347.202 407.451 346.374 407.664 345.285 407.664H322.494V402.552H342.445L341.309 403.617C341.309 401.44 340.978 399.617 340.315 398.15C339.7 396.683 338.777 395.57 337.546 394.813C336.363 394.008 334.872 393.606 333.073 393.606C331.085 393.606 329.381 394.079 327.961 395.026C326.589 395.925 325.524 397.227 324.766 398.931C324.056 400.588 323.701 402.576 323.701 404.895V405.392C323.701 409.273 324.601 412.184 326.399 414.125C328.245 416.018 330.943 416.965 334.493 416.965C335.724 416.965 337.097 416.823 338.611 416.539C340.173 416.208 341.641 415.663 343.013 414.906C344.007 414.338 344.883 414.101 345.64 414.196C346.398 414.243 346.989 414.504 347.415 414.977C347.889 415.45 348.173 416.042 348.267 416.752C348.362 417.415 348.22 418.101 347.841 418.811C347.51 419.521 346.918 420.136 346.066 420.657C344.41 421.698 342.493 422.479 340.315 423C338.185 423.473 336.197 423.71 334.351 423.71ZM361.094 423.568C359.674 423.568 358.562 423.189 357.757 422.432C357 421.627 356.621 420.491 356.621 419.024V392.186C356.621 390.671 357 389.559 357.757 388.849C358.562 388.092 359.674 387.713 361.094 387.713C362.514 387.713 363.603 388.092 364.36 388.849C365.118 389.559 365.496 390.671 365.496 392.186V401.7H380.832V392.186C380.832 390.671 381.211 389.559 381.968 388.849C382.726 388.092 383.814 387.713 385.234 387.713C386.654 387.713 387.743 388.092 388.5 388.849C389.305 389.559 389.707 390.671 389.707 392.186V419.024C389.707 420.491 389.305 421.627 388.5 422.432C387.743 423.189 386.654 423.568 385.234 423.568C383.814 423.568 382.726 423.189 381.968 422.432C381.211 421.627 380.832 420.491 380.832 419.024V408.658H365.496V419.024C365.496 420.491 365.118 421.627 364.36 422.432C363.65 423.189 362.562 423.568 361.094 423.568ZM411.604 423.568C410.184 423.568 409.071 423.189 408.267 422.432C407.509 421.627 407.131 420.491 407.131 419.024V395.239H398.469C395.913 395.239 394.635 394.079 394.635 391.76C394.635 390.671 394.966 389.819 395.629 389.204C396.339 388.589 397.285 388.281 398.469 388.281H424.668C427.224 388.281 428.502 389.441 428.502 391.76C428.502 392.896 428.17 393.772 427.508 394.387C426.845 394.955 425.898 395.239 424.668 395.239H416.006V419.024C416.006 420.491 415.627 421.627 414.87 422.432C414.16 423.189 413.071 423.568 411.604 423.568Z" fill="#FB5D04"/>
</svg>
