<svg width="100" height="100" viewBox="0 0 100 100" color="#2688EB" xmlns="http://www.w3.org/2000/svg">
<g id="midis">
<path id="Vector 1" d="M0 78.398V95.6835C0 97.8927 1.79086 99.6835 4 99.6835H13.638C15.8472 99.6835 17.638 97.8927 17.638 95.6836V63.5267C17.638 59.5422 12.4484 58.0076 10.2813 61.3512L0.643307 76.2226C0.223423 76.8705 0 77.626 0 78.398Z" fill="currentColor"/>
<path id="Vector 2" d="M22.7821 0H13.7099C10.5899 0 8.67107 3.41306 10.2924 6.07867L46.663 65.8746C48.2019 68.4045 51.8606 68.4435 53.453 65.9468L80.6603 23.2885C80.8605 22.9747 81.2069 22.7848 81.579 22.7848C82.1808 22.7848 82.6687 23.2727 82.6687 23.8745V96C82.6687 98.2091 84.4596 100 86.6687 100H96C98.2091 100 100 98.2091 100 96V4C100 1.79086 98.2091 0 96 0H77.9492C76.589 0 75.3219 0.691264 74.5857 1.83505L53.4145 34.7268C51.8268 37.1935 48.2121 37.1688 46.6583 34.6807L26.1748 1.88121C25.444 0.710996 24.1617 0 22.7821 0Z" fill="currentColor"/>
</g>
</svg>
